<?xml version="1.0" encoding="UTF-8"?>
<svg width="800px" height="600px" viewBox="0 0 800 600" version="1.1" xmlns="http://www.w3.org/2000/svg" xmlns:xlink="http://www.w3.org/1999/xlink">
    <title>IT Support</title>
    <defs>
        <linearGradient x1="0%" y1="0%" x2="100%" y2="100%" id="gradientPrimary">
            <stop stop-color="#0f766d" offset="0%"></stop>
            <stop stop-color="#0d9488" offset="100%"></stop>
        </linearGradient>
        <linearGradient x1="0%" y1="0%" x2="100%" y2="100%" id="gradientSecondary">
            <stop stop-color="#7e22ce" offset="0%"></stop>
            <stop stop-color="#a855f7" offset="100%"></stop>
        </linearGradient>
        <linearGradient x1="0%" y1="0%" x2="100%" y2="100%" id="gradientTertiary">
            <stop stop-color="#0284c7" offset="0%"></stop>
            <stop stop-color="#38bdf8" offset="100%"></stop>
        </linearGradient>
    </defs>
    <g stroke="none" stroke-width="1" fill="none" fill-rule="evenodd">
        <!-- Background -->
        <rect fill="#f8fafc" x="0" y="0" width="800" height="600"></rect>
        
        <!-- Main Computer -->
        <g transform="translate(200, 150)">
            <!-- Computer Base -->
            <rect x="0" y="0" width="400" height="250" rx="8" fill="#ffffff" stroke="#e2e8f0" stroke-width="3"></rect>
            
            <!-- Screen Content -->
            <rect x="20" y="20" width="360" height="210" rx="4" fill="#0f172a"></rect>
            
            <!-- Interface Elements -->
            <rect x="40" y="50" width="150" height="15" rx="2" fill="#64748b"></rect>
            <rect x="40" y="80" width="100" height="15" rx="2" fill="#64748b"></rect>
            <rect x="40" y="110" width="200" height="15" rx="2" fill="#64748b"></rect>
            
            <!-- Code / Terminal -->
            <rect x="40" y="150" width="320" height="60" rx="4" fill="#1e293b"></rect>
            <text x="55" y="170" font-family="monospace" font-size="10" fill="#38bdf8">$ npm install</text>
            <text x="55" y="185" font-family="monospace" font-size="10" fill="#34d399">+ academion-support@1.0.0</text>
            <text x="55" y="200" font-family="monospace" font-size="10" fill="#ffffff">Ready to assist!</text>
            
            <!-- Computer Stand -->
            <rect x="175" y="250" width="50" height="20" rx="2" fill="#e2e8f0"></rect>
            <rect x="160" y="270" width="80" height="10" rx="2" fill="#cbd5e1"></rect>
        </g>
        
        <!-- Support Team Member -->
        <g transform="translate(150, 320)">
            <!-- Support Person -->
            <circle cx="60" cy="60" r="50" fill="#f1f5f9" stroke="#e2e8f0" stroke-width="2"></circle>
            <circle cx="60" cy="45" r="20" fill="#cbd5e1"></circle>
            <rect x="40" y="65" width="40" height="40" rx="20" fill="#cbd5e1"></rect>
            <text x="60" y="130" font-family="Arial" font-size="14" fill="#0f172a" text-anchor="middle">Tech Support</text>
        </g>
        
        <!-- Connection Lines -->
        <g transform="translate(200, 150)">
            <!-- Connection Lines -->
            <path d="M220,290 C220,350 150,350 150,400" stroke="#e2e8f0" stroke-width="2" stroke-dasharray="5,5"></path>
            <path d="M220,290 C220,350 250,350 250,400" stroke="#e2e8f0" stroke-width="2" stroke-dasharray="5,5"></path>
            <path d="M220,290 C220,350 350,350 350,400" stroke="#e2e8f0" stroke-width="2" stroke-dasharray="5,5"></path>
            
            <!-- Connection Points -->
            <circle cx="150" cy="400" r="8" fill="url(#gradientPrimary)"></circle>
            <circle cx="250" cy="400" r="8" fill="url(#gradientSecondary)"></circle>
            <circle cx="350" cy="400" r="8" fill="url(#gradientTertiary)"></circle>
        </g>
        
        <!-- Support Icons -->
        <g transform="translate(300, 420)">
            <!-- Help Desk -->
            <rect x="0" y="0" width="80" height="80" rx="8" fill="#ffffff" stroke="#e2e8f0" stroke-width="2"></rect>
            <text x="40" y="45" font-family="Arial" font-size="24" fill="url(#gradientSecondary)" text-anchor="middle">?</text>
            <text x="40" y="100" font-family="Arial" font-size="12" fill="#0f172a" text-anchor="middle">Help Desk</text>
        </g>
        
        <g transform="translate(400, 420)">
            <!-- Technical Support -->
            <rect x="0" y="0" width="80" height="80" rx="8" fill="#ffffff" stroke="#e2e8f0" stroke-width="2"></rect>
            <text x="40" y="45" font-family="Arial" font-size="24" fill="url(#gradientTertiary)" text-anchor="middle">⚙️</text>
            <text x="40" y="100" font-family="Arial" font-size="12" fill="#0f172a" text-anchor="middle">Technical</text>
        </g>
        
        <g transform="translate(200, 420)">
            <!-- Chat Support -->
            <rect x="0" y="0" width="80" height="80" rx="8" fill="#ffffff" stroke="#e2e8f0" stroke-width="2"></rect>
            <text x="40" y="45" font-family="Arial" font-size="24" fill="url(#gradientPrimary)" text-anchor="middle">💬</text>
            <text x="40" y="100" font-family="Arial" font-size="12" fill="#0f172a" text-anchor="middle">Chat Support</text>
        </g>
        
        <!-- Help Bubbles -->
        <g transform="translate(510, 210)">
            <path d="M0,0 L20,20 L150,20 L150,80 L20,80 L0,100 L0,0 Z" fill="#ffffff" stroke="url(#gradientPrimary)" stroke-width="2"></path>
            <text x="75" y="40" font-family="Arial" font-size="12" fill="#0f172a" text-anchor="middle">Hogyan segíthetek?</text>
            <text x="75" y="60" font-family="Arial" font-size="10" fill="#64748b" text-anchor="middle">Academion IT támogatás</text>
        </g>
        
        <g transform="translate(140, 210)">
            <path d="M150,0 L130,20 L0,20 L0,80 L130,80 L150,100 L150,0 Z" fill="#ffffff" stroke="url(#gradientSecondary)" stroke-width="2"></path>
            <text x="75" y="40" font-family="Arial" font-size="12" fill="#0f172a" text-anchor="middle">Kérdésem van!</text>
            <text x="75" y="60" font-family="Arial" font-size="10" fill="#64748b" text-anchor="middle">Felhasználó</text>
        </g>
        
        <!-- Title -->
        <text x="400" y="80" font-family="Arial" font-size="24" font-weight="bold" fill="#0f172a" text-anchor="middle">IT Támogatás</text>
        <text x="400" y="110" font-family="Arial" font-size="16" fill="#64748b" text-anchor="middle">24/7 szakértői segítség az Academion platformon</text>
    </g>
</svg>